<?xml version="1.0" encoding="UTF-8" standalone="no"?>
<svg
   xmlns:dc="http://purl.org/dc/elements/1.1/"
   xmlns:cc="http://creativecommons.org/ns#"
   xmlns:rdf="http://www.w3.org/1999/02/22-rdf-syntax-ns#"
   xmlns:svg="http://www.w3.org/2000/svg"
   xmlns="http://www.w3.org/2000/svg"
   xmlns:sodipodi="http://sodipodi.sourceforge.net/DTD/sodipodi-0.dtd"
   xmlns:inkscape="http://www.inkscape.org/namespaces/inkscape"
   version="1.1"
   id="Layer_1"
   x="0px"
   y="0px"
   width="100.78464"
   height="116.60808"
   viewBox="0 0 100.78464 116.60808"
   enable-background="new 0 0 100 28"
   xml:space="preserve"
   inkscape:version="0.48.3.1 r9886"
   sodipodi:docname="noun_project_3189.svg"
   inkscape:export-filename="/home/kennydude/Pictures/noun_project_3189.png"
   inkscape:export-xdpi="463.41769"
   inkscape:export-ydpi="463.41769"><metadata
   id="metadata3141"><rdf:RDF><cc:Work
       rdf:about=""><dc:format>image/svg+xml</dc:format><dc:type
         rdf:resource="http://purl.org/dc/dcmitype/StillImage" /><dc:title></dc:title></cc:Work></rdf:RDF></metadata><defs
   id="defs3139" /><sodipodi:namedview
   pagecolor="#ffffff"
   bordercolor="#666666"
   borderopacity="1"
   objecttolerance="10"
   gridtolerance="10"
   guidetolerance="10"
   inkscape:pageopacity="0"
   inkscape:pageshadow="2"
   inkscape:window-width="640"
   inkscape:window-height="480"
   id="namedview3137"
   showgrid="false"
   fit-margin-top="0"
   fit-margin-left="0"
   fit-margin-right="0"
   fit-margin-bottom="0"
   inkscape:zoom="3.28"
   inkscape:cx="49.87"
   inkscape:cy="29.391221"
   inkscape:window-x="0"
   inkscape:window-y="31"
   inkscape:window-maximized="0"
   inkscape:current-layer="Layer_1" />
<g
   id="g3133"
   transform="translate(-0.13,89.317077)">
	<path
   d="m 93.301,3.903 c -4.633,0.479 -5.887,6.338 -6.108,7.648 0.528,-1.366 5.718,-3.849 6.726,-0.991 1.081,3.058 -0.853,7.377 -7.869,6.837 -7.018,-0.54 -9.447,-6.836 -18.083,-13.674 -8.637,-6.837 -18.173,0 -18.173,0 0,0 -9.4,-6.837 -18.037,0 C 23.12,10.56 20.758,16.857 13.743,17.397 6.725,17.937 4.825,13.618 5.904,10.56 6.913,7.701 12.121,10.186 12.65,11.552 12.428,10.246 11.183,4.383 6.548,3.904 1.329,3.363 0.13,9.255 0.13,12.134 c 0,2.878 0.686,15.157 21.736,15.157 21.05,0 27.927,-13.303 27.927,-13.303 0,0 7.009,13.303 28.061,13.303 21.05,0 21.868,-12.279 21.868,-15.157 0,-2.879 -1.204,-8.771 -6.421,-8.231 z"
   id="path3135"
   inkscape:connector-curvature="0" />
</g>
<path
   id="path3266"
   d="M 93.784632,21.000003 H 55.027634 L 70.904634,5.123 c 0.545,-0.543 0.881,-1.294 0.881,-2.123 0,-1.657 -1.343,-3 -3,-3 -0.83,0 -1.582,0.338 -2.125,0.883 L 50.785634,16.758003 34.908634,0.881 c -0.543,-0.545 -1.294,-0.881 -2.123,-0.881 -1.657,0 -3,1.343 -3,3 0,0.829 0.336,1.579 0.879,2.122 l 15.879,15.878003 H 7.7846337 c -3.866,0 -6.99999999,3.09 -6.99999999,6.901 v 56.197 c 0,3.812 3.13399999,6.902 6.99999999,6.902 H 93.784632 c 3.866,0 7.000008,-3.09 7.000008,-6.901 v -56.198 c 0,-3.811 -3.134008,-6.901 -7.000008,-6.901 z m -16.999998,50 c 0,6.627 -5.372,12 -12,12 h -45 c -6.628,0 -12.0000003,-5.373 -12.0000003,-12 v -30 c 0,-6.627 5.3720003,-12 12.0000003,-12 h 45 c 6.628,0 12,5.373 12,12 v 30 z m 12.000998,-14 c -3.311998,0 -5.999998,-2.686 -5.999998,-6 0,-3.314 2.688,-6 5.999998,-6 3.313,0 6,2.686 6,6 0,3.314 -2.687,6 -6,6 z m 0,-16 c -3.311998,0 -5.999998,-2.686 -5.999998,-6 0,-3.314 2.688,-6 5.999998,-6 3.313,0 6,2.686 6,6 0,3.314 -2.687,6 -6,6 z"
   inkscape:connector-curvature="0" /><rect
   style="fill:#000000;fill-opacity:1;fill-rule:nonzero;stroke:#000000;stroke-width:1.29999995;stroke-linecap:butt;stroke-linejoin:round;stroke-miterlimit:4;stroke-opacity:1;stroke-dasharray:none"
   id="rect3275"
   width="19.207317"
   height="10.670732"
   x="40.113903"
   y="85.134148" /></svg>